<?xml version="1.0" standalone="no"?><!DOCTYPE svg PUBLIC "-//W3C//DTD SVG 1.1//EN" "http://www.w3.org/Graphics/SVG/1.1/DTD/svg11.dtd"><svg t="1571928116392" class="icon" viewBox="0 0 1024 1024" version="1.1" xmlns="http://www.w3.org/2000/svg" p-id="6941" width="24" height="24" xmlns:xlink="http://www.w3.org/1999/xlink"><defs><style type="text/css"></style></defs><path d="M121.6 345.6l377.6 150.4c3.2 3.2 9.6 3.2 12.8 3.2 3.2 0 9.6 0 12.8-3.2l377.6-150.4c16-6.4 25.6-19.2 25.6-35.2s-9.6-28.8-25.6-35.2L528 124.8c-3.2-3.2-9.6-3.2-12.8-3.2-3.2 0-9.6 0-12.8 3.2L121.6 272c-16 6.4-25.6 22.4-25.6 38.4s9.6 28.8 25.6 35.2zM512 188.8l307.2 121.6-307.2 118.4-307.2-118.4L512 188.8zM883.2 688L512 838.4h-3.2L140.8 688c-16-6.4-35.2 0-41.6 19.2-6.4 16 0 35.2 19.2 41.6L486.4 896c9.6 3.2 16 6.4 25.6 6.4 9.6 0 16-3.2 25.6-6.4l371.2-150.4c16-6.4 25.6-25.6 19.2-41.6-9.6-12.8-28.8-22.4-44.8-16z" fill="#a7a7a7" p-id="6942"></path><path d="M883.2 483.2L512 633.6h-3.2L140.8 483.2c-16-6.4-35.2 0-41.6 19.2-6.4 16 0 35.2 19.2 41.6l371.2 150.4c9.6 3.2 16 6.4 25.6 6.4 9.6 0 16-3.2 25.6-6.4L908.8 544c16-6.4 25.6-25.6 19.2-41.6-9.6-16-28.8-25.6-44.8-19.2z" fill="#a7a7a7" p-id="6943"></path></svg>