<svg t="1579149169539" class="icon" viewBox="0 0 1024 1024" version="1.1" xmlns="http://www.w3.org/2000/svg" p-id="5871" width="24" height="24"><path d="M765.459131 566.429657c-45.098127 0-89.273233-13.505595-126.683261-38.426171-37.360909 24.920576-81.556481 38.426171-126.776382 38.426171-45.221948 0-89.415472-13.505595-126.775358-38.426171-37.412075 24.920576-81.585133 38.426171-126.685307 38.426171-96.028077 0-182.464705-60.648288-215.064171-150.971434l-5.565762-17.250896L208.163505 104.377232h607.66992L986.089064 398.208351l-5.194303 16.164144c-32.970926 91.408873-119.407554 152.057161-215.43563 152.057162zM638.703215 451.390597l19.313881 15.942087c30.195719 25.101701 68.361971 38.910195 107.441011 38.910195 67.343781 0 128.297015-40.48097 154.705478-101.774964L781.151531 164.56401H242.846422l-139.013077 239.924371c26.338878 61.213153 87.302345 101.754498 154.705478 101.754498 39.081087 0 77.245292-13.808494 107.441011-38.910195l19.254529-15.983019 19.283182 16.042371c30.133298 25.062815 68.299549 38.850843 107.481943 38.850843 39.180348 0 77.346599-13.788028 107.479897-38.850843l19.22383-16.001439zM726.631824 919.622768H297.370223c-82.390475 0-149.412938-67.032696-149.412938-149.400659V597.308945h60.188824V770.222109c0 49.196469 40.025599 89.213881 89.224114 89.213881h429.261601c49.196469 0 89.224114-40.017412 89.224114-89.213881V597.308945h60.186777V770.222109c0 82.367963-67.022463 149.400658-149.410891 149.400659z" p-id="5872"></path></svg>